<?xml version="1.0" encoding="UTF-8"?>
<svg width="76px" height="51px" viewBox="0 0 76 51" version="1.1" xmlns="http://www.w3.org/2000/svg" xmlns:xlink="http://www.w3.org/1999/xlink">
    <!-- Generator: Sketch 62 (91390) - https://sketch.com -->
    <title>Group 6</title>
    <desc>Created with Sketch.</desc>
    <defs>
        <polygon id="path-1" points="0 0.619220924 75.2752195 0.619220924 75.2752195 39.7227902 0 39.7227902"/>
    </defs>
    <g id="Symbols" stroke="none" stroke-width="1" fill="none" fill-rule="evenodd">
        <g id="ico/big/altimetria" transform="translate(-2.000000, -15.000000)">
            <g id="Group-6" transform="translate(2.000000, 15.000000)">
                <g id="Group-3" transform="translate(0.000000, 1.509434)">
                    <mask id="mask-2" fill="white">
                        <use xlink:href="#path-1"/>
                    </mask>
                    <g id="Clip-2"/>
                    <path d="M69.6358341,39.637522 C50.739639,39.6041561 31.8452976,39.7227902 12.9491024,39.7227902 C6.25924878,39.6986927 -1.43899512,37.6225951 0.23115122,29.143961 C0.713102439,26.695278 1.98656585,24.4949854 3.6252,22.5857171 C4.31476098,21.7812293 5.07105366,21.0286439 5.8607122,20.3316683 C9.70890732,16.9339122 16.3134927,10.6982049 21.8930049,11.8307902 C25.8913463,12.6426927 27.9730049,15.6141073 30.4216878,18.5354732 C31.7618829,20.1333268 33.7137854,21.5680585 35.7583707,21.1750829 C36.9391512,20.9470829 37.9252976,20.1388878 38.731639,19.247278 C41.6696878,15.9885463 42.754078,11.5156683 44.7171024,7.58961951 C48.4559317,0.11937561 55.6388585,-1.57301463 62.3009073,3.61537561 C71.2614927,10.5981073 76.0087122,22.9842537 75.1838341,34.1469854 C75.0411024,36.0618146 74.5610049,38.2435707 72.866761,39.1481561 C71.9658829,39.6301073 70.896322,39.6393756 69.8749561,39.637522 C69.7952488,39.637522 69.7155415,39.637522 69.6358341,39.637522" id="Fill-1" fill="#D6D3EB" mask="url(#mask-2)"/>
                </g>
                <polyline id="Stroke-4" stroke="#222222" stroke-width="2" points="66.1791317 49.7047415 15.9690829 49.7047415 15.9690829 0.000741463415"/>
            </g>
        </g>
    </g>
</svg>