<?xml version="1.0" encoding="UTF-8"?>
<svg width="72px" height="73px" viewBox="0 0 72 73" version="1.1" xmlns="http://www.w3.org/2000/svg" xmlns:xlink="http://www.w3.org/1999/xlink">
    <!-- Generator: Sketch 62 (91390) - https://sketch.com -->
    <title>Group 6</title>
    <desc>Created with Sketch.</desc>
    <defs>
        <polygon id="path-1" points="0 0.753024 70.4 0.753024 70.4 25.6 0 25.6"/>
    </defs>
    <g id="Symbols" stroke="none" stroke-width="1" fill="none" fill-rule="evenodd">
        <g id="ico/big/planimetria" transform="translate(-4.000000, -3.000000)">
            <g id="Group-6" transform="translate(4.800000, 3.900000)">
                <g id="Group-3" transform="translate(0.000000, 45.700000)">
                    <mask id="mask-2" fill="white">
                        <use xlink:href="#path-1"/>
                    </mask>
                    <g id="Clip-2"/>
                    <path d="M35.2,25.600704 C15.75904,25.600704 0,20.037344 0,13.176864 C0,6.316384 15.75904,0.753024 35.2,0.753024 C54.64096,0.753024 70.4,6.316384 70.4,13.176864 C70.4,20.037344 54.64096,25.600704 35.2,25.600704 Z" id="Fill-1" fill="#D6D3EB" mask="url(#mask-2)"/>
                </g>
                <path d="M34.7991178,14.270933 C40.3977872,14.270933 44.9518892,18.8023257 44.9518892,24.372932 C44.9518892,29.9417798 40.3977872,34.4731725 34.7991178,34.4731725 C29.2004483,34.4731725 24.6445818,29.9417798 24.6445818,24.372932 C24.6445818,18.8023257 29.2004483,14.270933 34.7991178,14.270933 Z M33.936291,58.9975555 C34.0174567,59.048549 34.0986224,59.101301 34.1797881,59.1505361 C34.3668221,59.2437313 34.5767943,59.3 34.7991178,59.3 C35.0214412,59.3 35.2314134,59.2437313 35.4184474,59.1505361 C35.4996131,59.101301 35.5825433,59.048549 35.663709,58.9975555 C56.3997831,45.9607895 59.2,30.9317581 59.2,24.372932 C59.2,13.1437996 51.5333695,3.70295839 41.1265141,0.92996406 C41.0453484,0.90710488 40.9659471,0.882487302 40.883017,0.861386521 C38.9385689,0.365518163 36.9006038,0.1 34.7991178,0.1 C32.6993962,0.1 30.6614311,0.365518163 28.716983,0.861386521 C28.6358173,0.882487302 28.5528872,0.90710488 28.4717214,0.92996406 C18.064866,3.70295839 10.4,13.145558 10.4,24.372932 C10.4,30.9317581 13.2002169,45.9607895 33.936291,58.9975555 Z" id="Stroke-4" stroke="#222222" stroke-width="2"/>
            </g>
        </g>
    </g>
</svg>